####
#
# OBJ File Generated by Meshlab
#
####
# Object track_pad.obj
#
# Vertices: 112
# Faces: 212
#
####
mtllib ./track_pad.obj.mtl

vn 0.718503 -0.694267 0.041792
v 1.130800 0.847810 -0.264988
vn 0.711071 -0.686493 0.152006
v 1.130100 0.847810 -0.258991
vn 0.711071 0.686493 0.152006
v 1.130100 1.235800 -0.258991
vn 0.718503 0.694267 0.041792
v 1.130800 1.235800 -0.264988
vn 0.663423 -0.675811 0.321169
v 1.127900 0.847810 -0.252003
vn 0.663423 0.675811 0.321169
v 1.127900 1.235800 -0.252003
vn 0.550734 -0.680330 0.483573
v 1.124500 0.847810 -0.246998
vn 0.550734 0.680330 0.483573
v 1.124500 1.235800 -0.246998
vn 0.453667 -0.698202 0.553804
v 1.120000 0.847810 -0.243000
vn 0.453667 0.698202 0.553804
v 1.120000 1.235800 -0.243000
vn 0.343582 -0.672203 0.655816
v 1.114700 0.847810 -0.239002
vn 0.343582 0.672202 0.655817
v 1.114700 1.235800 -0.239002
vn 0.168260 -0.688542 0.705406
v 1.108600 0.847810 -0.236988
vn 0.168261 0.688542 0.705406
v 1.108600 1.235800 -0.236988
vn 0.053973 -0.690688 0.721136
v 1.102010 0.847810 -0.235996
vn 0.053973 0.690688 0.721136
v 1.102010 1.235800 -0.235996
vn -0.053973 -0.690688 0.721136
v 1.089290 0.847810 -0.235996
vn -0.053973 0.690688 0.721136
v 1.089290 1.235800 -0.235996
vn -0.170312 -0.687962 0.705480
v 1.082700 0.847810 -0.236988
vn -0.170312 0.687963 0.705480
v 1.082700 1.235800 -0.236988
vn -0.341495 -0.673744 0.655325
v 1.076710 0.847810 -0.239002
vn -0.341495 0.673744 0.655325
v 1.076710 1.235800 -0.239002
vn -0.455063 -0.696028 0.555394
v 1.071300 0.847810 -0.243000
vn -0.455064 0.696028 0.555394
v 1.071300 1.235800 -0.243000
vn -0.548594 -0.682643 0.482745
v 1.066890 0.847810 -0.246998
vn -0.548595 0.682643 0.482745
v 1.066890 1.235800 -0.246998
vn -0.665990 -0.673116 0.321514
v 1.063400 0.847810 -0.252003
vn -0.665990 0.673117 0.321513
v 1.063400 1.235800 -0.252003
vn -0.707591 -0.689944 0.152621
v 1.061310 0.847810 -0.258991
vn -0.707590 0.689944 0.152621
v 1.061310 1.235800 -0.258991
vn -0.719969 -0.692316 0.048404
v 1.060500 0.847810 -0.264988
vn -0.719970 0.692316 0.048404
v 1.060500 1.235800 -0.264988
vn -0.718436 -0.694354 -0.041501
v 1.060500 0.847810 -0.297001
vn -0.718436 0.694354 -0.041501
v 1.060500 1.235800 -0.297001
vn -0.711736 -0.683300 -0.162887
v 1.061310 0.847810 -0.303989
vn -0.711736 0.683300 -0.162887
v 1.061310 1.235800 -0.303989
vn -0.655002 -0.677441 -0.334733
v 1.063400 0.847810 -0.310001
vn -0.655002 0.677441 -0.334733
v 1.063400 1.235800 -0.310001
vn -0.565430 -0.694727 -0.444572
v 1.066890 0.847810 -0.314991
vn -0.565430 0.694727 -0.444572
v 1.066890 1.235800 -0.314991
vn -0.465088 -0.670802 -0.577684
v 1.071300 0.847810 -0.319996
vn -0.465088 0.670802 -0.577684
v 1.071300 1.235800 -0.319996
vn -0.292779 -0.686889 -0.665180
v 1.076710 0.847810 -0.323002
vn -0.292779 0.686889 -0.665180
v 1.076710 1.235800 -0.323002
vn -0.169414 -0.688186 -0.705478
v 1.082700 0.847810 -0.325001
vn -0.169414 0.688186 -0.705477
v 1.082700 1.235800 -0.325001
vn -0.053917 -0.690704 -0.721125
v 1.089290 0.847810 -0.325992
vn -0.053917 0.690704 -0.721125
v 1.089290 1.235800 -0.325992
vn 0.053917 -0.690704 -0.721125
v 1.102010 0.847810 -0.325992
vn 0.053917 0.690704 -0.721125
v 1.102010 1.235800 -0.325992
vn 0.167375 -0.688763 -0.705401
v 1.108600 0.847810 -0.325001
vn 0.167375 0.688763 -0.705401
v 1.108600 1.235800 -0.325001
vn 0.294461 -0.685391 -0.665982
v 1.114700 0.847810 -0.323002
vn 0.294461 0.685391 -0.665982
v 1.114700 1.235800 -0.323002
vn 0.463649 -0.672688 -0.576647
v 1.120000 0.847810 -0.319996
vn 0.463649 0.672688 -0.576646
v 1.120000 1.235800 -0.319996
vn 0.567738 -0.692320 -0.445384
v 1.124500 0.847810 -0.314991
vn 0.567737 0.692320 -0.445384
v 1.124500 1.235800 -0.314991
vn 0.651917 -0.680372 -0.334811
v 1.127900 0.847810 -0.310001
vn 0.651917 0.680371 -0.334811
v 1.127900 1.235800 -0.310001
vn 0.714685 -0.679993 -0.163814
v 1.130100 0.847810 -0.303989
vn 0.714685 0.679993 -0.163814
v 1.130100 1.235800 -0.303989
vn 0.717102 -0.696046 -0.035827
v 1.130800 0.847810 -0.297001
vn 0.717103 0.696046 -0.035827
v 1.130800 1.235800 -0.297001
vn -0.576696 -0.577460 0.577895
v 1.093310 0.828500 -0.310001
vn -0.578004 -0.577241 -0.576805
v 1.093200 0.828500 -0.362995
vn -0.578004 0.577241 -0.576805
v 1.093200 1.422910 -0.362995
vn -0.576696 0.577460 0.577895
v 1.093310 1.422910 -0.310001
vn 0.577350 -0.577350 -0.577350
v 1.132110 0.828500 -0.362995
vn 0.577350 0.577350 -0.577350
v 1.132110 1.422910 -0.362995
vn 0.301511 -0.904534 -0.301511
v 1.132110 0.828500 -0.338993
vn 0.301511 0.904534 -0.301511
v 1.132110 1.422910 -0.338993
vn -0.301465 -0.904749 -0.300913
v 1.150410 0.828500 -0.338993
vn -0.301465 0.904749 -0.300913
v 1.150410 1.422910 -0.338993
vn -0.577928 -0.577254 -0.576869
v 1.150300 0.828500 -0.398990
vn -0.577928 0.577254 -0.576869
v 1.150300 1.422910 -0.398990
vn 0.576800 -0.577442 -0.577808
v 1.196500 0.828500 -0.398990
vn 0.576800 0.577442 -0.577808
v 1.196500 1.422910 -0.398990
vn 0.301554 -0.904329 -0.302082
v 1.196610 0.828500 -0.336002
vn 0.301554 0.904329 -0.302082
v 1.196610 1.422910 -0.336002
vn -0.301511 -0.904534 -0.301511
v 1.214900 0.828500 -0.336002
vn -0.301511 0.904534 -0.301511
v 1.214900 1.422910 -0.336002
vn -0.577350 -0.577350 -0.577350
v 1.214900 0.828500 -0.360996
vn -0.577350 0.577350 -0.577350
v 1.214900 1.422910 -0.360996
vn 0.576671 -0.577464 -0.577915
v 1.254500 0.828500 -0.360996
vn 0.576671 0.577464 -0.577915
v 1.254500 1.422910 -0.360996
vn 0.578029 -0.577237 0.576784
v 1.254610 0.828500 -0.310001
vn 0.578029 0.577237 0.576784
v 1.254610 1.422910 -0.310001
vn -0.576809 -0.577441 0.577800
v 0.918701 0.828500 -0.310001
vn -0.577891 -0.577260 -0.576899
v 0.918610 0.828500 -0.362995
vn -0.577891 0.577260 -0.576899
v 0.918610 1.422910 -0.362995
vn -0.576809 0.577441 0.577800
v 0.918701 1.422910 -0.310001
vn 0.577350 -0.577350 -0.577350
v 0.957504 0.828500 -0.362995
vn 0.577350 0.577350 -0.577350
v 0.957504 1.422910 -0.362995
vn 0.301511 -0.904534 -0.301511
v 0.957504 0.828500 -0.338993
vn 0.301511 0.904534 -0.301511
v 0.957504 1.422910 -0.338993
vn -0.301427 -0.904920 -0.300434
v 0.975906 0.828500 -0.338993
vn -0.301427 0.904920 -0.300434
v 0.975906 1.422910 -0.338993
vn -0.578389 -0.577177 -0.576483
v 0.975708 0.828500 -0.398990
vn -0.578389 0.577177 -0.576483
v 0.975708 1.422910 -0.398990
vn 0.576850 -0.577434 -0.577766
v 1.021900 0.828500 -0.398990
vn 0.576851 0.577434 -0.577766
v 1.021900 1.422910 -0.398990
vn 0.301551 -0.904348 -0.302029
v 1.022000 0.828500 -0.336002
vn 0.301550 0.904348 -0.302029
v 1.022000 1.422910 -0.336002
vn -0.301399 -0.905049 -0.300075
v 1.040410 0.828500 -0.336002
vn -0.301399 0.905049 -0.300075
v 1.040410 1.422910 -0.336002
vn -0.578735 -0.577119 -0.576193
v 1.040300 0.828500 -0.360996
vn -0.578735 0.577119 -0.576193
v 1.040300 1.422910 -0.360996
vn 0.576732 -0.577453 -0.577865
v 1.079900 0.828500 -0.360996
vn 0.576732 0.577453 -0.577865
v 1.079900 1.422910 -0.360996
vn 0.577968 -0.577247 0.576835
v 1.080000 0.828500 -0.310001
vn 0.577968 0.577247 0.576835
v 1.080000 1.422910 -0.310001
# 112 vertices, 0 vertices normals


usemtl material_0
vt 0.000000 0.000000
f 3/1/3 2/1/2 1/1/1
f 3/1/3 1/1/1 4/1/4
f 6/1/6 5/1/5 2/1/2
f 6/1/6 2/1/2 3/1/3
f 8/1/8 7/1/7 5/1/5
f 8/1/8 5/1/5 6/1/6
f 10/1/10 9/1/9 7/1/7
f 10/1/10 7/1/7 8/1/8
f 12/1/12 11/1/11 9/1/9
f 12/1/12 9/1/9 10/1/10
f 14/1/14 13/1/13 11/1/11
f 14/1/14 11/1/11 12/1/12
f 16/1/16 15/1/15 13/1/13
f 16/1/16 13/1/13 14/1/14
f 18/1/18 17/1/17 15/1/15
f 18/1/18 15/1/15 16/1/16
f 20/1/20 19/1/19 17/1/17
f 20/1/20 17/1/17 18/1/18
f 22/1/22 21/1/21 19/1/19
f 22/1/22 19/1/19 20/1/20
f 24/1/24 23/1/23 21/1/21
f 24/1/24 21/1/21 22/1/22
f 26/1/26 25/1/25 23/1/23
f 26/1/26 23/1/23 24/1/24
f 28/1/28 27/1/27 25/1/25
f 28/1/28 25/1/25 26/1/26
f 30/1/30 29/1/29 27/1/27
f 30/1/30 27/1/27 28/1/28
f 32/1/32 31/1/31 29/1/29
f 32/1/32 29/1/29 30/1/30
f 34/1/34 33/1/33 31/1/31
f 34/1/34 31/1/31 32/1/32
f 36/1/36 35/1/35 33/1/33
f 36/1/36 33/1/33 34/1/34
f 38/1/38 37/1/37 35/1/35
f 38/1/38 35/1/35 36/1/36
f 40/1/40 39/1/39 37/1/37
f 40/1/40 37/1/37 38/1/38
f 42/1/42 41/1/41 39/1/39
f 42/1/42 39/1/39 40/1/40
f 44/1/44 43/1/43 41/1/41
f 44/1/44 41/1/41 42/1/42
f 46/1/46 45/1/45 43/1/43
f 46/1/46 43/1/43 44/1/44
f 48/1/48 47/1/47 45/1/45
f 48/1/48 45/1/45 46/1/46
f 50/1/50 49/1/49 47/1/47
f 50/1/50 47/1/47 48/1/48
f 52/1/52 51/1/51 49/1/49
f 52/1/52 49/1/49 50/1/50
f 54/1/54 53/1/53 51/1/51
f 54/1/54 51/1/51 52/1/52
f 56/1/56 55/1/55 53/1/53
f 56/1/56 53/1/53 54/1/54
f 58/1/58 57/1/57 55/1/55
f 58/1/58 55/1/55 56/1/56
f 60/1/60 59/1/59 57/1/57
f 60/1/60 57/1/57 58/1/58
f 62/1/62 61/1/61 59/1/59
f 62/1/62 59/1/59 60/1/60
f 64/1/64 63/1/63 61/1/61
f 64/1/64 61/1/61 62/1/62
f 4/1/4 1/1/1 63/1/63
f 4/1/4 63/1/63 64/1/64
f 53/1/53 55/1/55 49/1/49
f 53/1/53 49/1/49 51/1/51
f 57/1/57 59/1/59 49/1/49
f 57/1/57 49/1/49 55/1/55
f 61/1/61 63/1/63 49/1/49
f 61/1/61 49/1/49 59/1/59
f 63/1/63 1/1/1 47/1/47
f 63/1/63 47/1/47 49/1/49
f 1/1/1 43/1/43 45/1/45
f 1/1/1 45/1/45 47/1/47
f 1/1/1 39/1/39 41/1/41
f 1/1/1 41/1/41 43/1/43
f 1/1/1 35/1/35 37/1/37
f 1/1/1 37/1/37 39/1/39
f 1/1/1 31/1/31 33/1/33
f 1/1/1 33/1/33 35/1/35
f 1/1/1 27/1/27 29/1/29
f 1/1/1 29/1/29 31/1/31
f 1/1/1 23/1/23 25/1/25
f 1/1/1 25/1/25 27/1/27
f 1/1/1 19/1/19 21/1/21
f 1/1/1 21/1/21 23/1/23
f 1/1/1 15/1/15 17/1/17
f 1/1/1 17/1/17 19/1/19
f 1/1/1 2/1/2 13/1/13
f 1/1/1 13/1/13 15/1/15
f 2/1/2 5/1/5 11/1/11
f 2/1/2 11/1/11 13/1/13
f 5/1/5 7/1/7 9/1/9
f 5/1/5 9/1/9 11/1/11
f 54/1/54 52/1/52 50/1/50
f 54/1/54 50/1/50 56/1/56
f 58/1/58 56/1/56 50/1/50
f 58/1/58 50/1/50 60/1/60
f 62/1/62 60/1/60 50/1/50
f 62/1/62 50/1/50 64/1/64
f 64/1/64 50/1/50 48/1/48
f 64/1/64 48/1/48 4/1/4
f 4/1/4 48/1/48 46/1/46
f 4/1/4 46/1/46 44/1/44
f 4/1/4 44/1/44 42/1/42
f 4/1/4 42/1/42 40/1/40
f 4/1/4 40/1/40 38/1/38
f 4/1/4 38/1/38 36/1/36
f 4/1/4 36/1/36 34/1/34
f 4/1/4 34/1/34 32/1/32
f 4/1/4 32/1/32 30/1/30
f 4/1/4 30/1/30 28/1/28
f 4/1/4 28/1/28 26/1/26
f 4/1/4 26/1/26 24/1/24
f 4/1/4 24/1/24 22/1/22
f 4/1/4 22/1/22 20/1/20
f 4/1/4 20/1/20 18/1/18
f 4/1/4 18/1/18 16/1/16
f 4/1/4 16/1/16 14/1/14
f 4/1/4 14/1/14 3/1/3
f 3/1/3 14/1/14 12/1/12
f 3/1/3 12/1/12 6/1/6
f 6/1/6 12/1/12 10/1/10
f 6/1/6 10/1/10 8/1/8
f 67/1/67 66/1/66 65/1/65
f 67/1/67 65/1/65 68/1/68
f 70/1/70 69/1/69 66/1/66
f 70/1/70 66/1/66 67/1/67
f 72/1/72 71/1/71 69/1/69
f 72/1/72 69/1/69 70/1/70
f 74/1/74 73/1/73 71/1/71
f 74/1/74 71/1/71 72/1/72
f 76/1/76 75/1/75 73/1/73
f 76/1/76 73/1/73 74/1/74
f 78/1/78 77/1/77 75/1/75
f 78/1/78 75/1/75 76/1/76
f 80/1/80 79/1/79 77/1/77
f 80/1/80 77/1/77 78/1/78
f 82/1/82 81/1/81 79/1/79
f 82/1/82 79/1/79 80/1/80
f 84/1/84 83/1/83 81/1/81
f 84/1/84 81/1/81 82/1/82
f 86/1/86 85/1/85 83/1/83
f 86/1/86 83/1/83 84/1/84
f 88/1/88 87/1/87 85/1/85
f 88/1/88 85/1/85 86/1/86
f 68/1/68 65/1/65 87/1/87
f 68/1/68 87/1/87 88/1/88
f 87/1/87 81/1/81 83/1/83
f 87/1/87 83/1/83 85/1/85
f 65/1/65 79/1/79 81/1/81
f 65/1/65 81/1/81 87/1/87
f 79/1/79 73/1/73 75/1/75
f 79/1/79 75/1/75 77/1/77
f 65/1/65 71/1/71 73/1/73
f 65/1/65 73/1/73 79/1/79
f 66/1/66 69/1/69 71/1/71
f 66/1/66 71/1/71 65/1/65
f 88/1/88 86/1/86 84/1/84
f 88/1/88 84/1/84 82/1/82
f 68/1/68 88/1/88 82/1/82
f 68/1/68 82/1/82 80/1/80
f 80/1/80 78/1/78 76/1/76
f 80/1/80 76/1/76 74/1/74
f 68/1/68 80/1/80 74/1/74
f 68/1/68 74/1/74 72/1/72
f 67/1/67 68/1/68 72/1/72
f 67/1/67 72/1/72 70/1/70
f 91/1/91 90/1/90 89/1/89
f 91/1/91 89/1/89 92/1/92
f 94/1/94 93/1/93 90/1/90
f 94/1/94 90/1/90 91/1/91
f 96/1/96 95/1/95 93/1/93
f 96/1/96 93/1/93 94/1/94
f 98/1/98 97/1/97 95/1/95
f 98/1/98 95/1/95 96/1/96
f 100/1/100 99/1/99 97/1/97
f 100/1/100 97/1/97 98/1/98
f 102/1/102 101/1/101 99/1/99
f 102/1/102 99/1/99 100/1/100
f 104/1/104 103/1/103 101/1/101
f 104/1/104 101/1/101 102/1/102
f 106/1/106 105/1/105 103/1/103
f 106/1/106 103/1/103 104/1/104
f 108/1/108 107/1/107 105/1/105
f 108/1/108 105/1/105 106/1/106
f 110/1/110 109/1/109 107/1/107
f 110/1/110 107/1/107 108/1/108
f 112/1/112 111/1/111 109/1/109
f 112/1/112 109/1/109 110/1/110
f 92/1/92 89/1/89 111/1/111
f 92/1/92 111/1/111 112/1/112
f 111/1/111 105/1/105 107/1/107
f 111/1/111 107/1/107 109/1/109
f 89/1/89 103/1/103 105/1/105
f 89/1/89 105/1/105 111/1/111
f 103/1/103 97/1/97 99/1/99
f 103/1/103 99/1/99 101/1/101
f 89/1/89 95/1/95 97/1/97
f 89/1/89 97/1/97 103/1/103
f 90/1/90 93/1/93 95/1/95
f 90/1/90 95/1/95 89/1/89
f 112/1/112 110/1/110 108/1/108
f 112/1/112 108/1/108 106/1/106
f 92/1/92 112/1/112 106/1/106
f 92/1/92 106/1/106 104/1/104
f 104/1/104 102/1/102 100/1/100
f 104/1/104 100/1/100 98/1/98
f 92/1/92 104/1/104 98/1/98
f 92/1/92 98/1/98 96/1/96
f 91/1/91 92/1/92 96/1/96
f 91/1/91 96/1/96 94/1/94
# 212 faces, 1 coords texture

# End of File
